<?xml version="1.0" encoding="UTF-8" standalone="no"?>
<!DOCTYPE svg PUBLIC "-//W3C//DTD SVG 1.1//EN" "http://www.w3.org/Graphics/SVG/1.1/DTD/svg11.dtd">
<svg width="100%" height="100%" viewBox="0 0 134 24" version="1.1" xmlns="http://www.w3.org/2000/svg" xmlns:xlink="http://www.w3.org/1999/xlink" xml:space="preserve" xmlns:serif="http://www.serif.com/" style="fill-rule:evenodd;clip-rule:evenodd;stroke-linejoin:round;stroke-miterlimit:2;">
    <g transform="matrix(1,0,0,1,-909.449,-1535)">
        <g>
            <g>
                <g transform="matrix(1,0,0,1,0,94.0551)">
                    <path d="M921.26,1452.76L927.165,1458.66L921.26,1455.12L921.26,1452.76ZM921.26,1452.76L915.354,1458.66L918.898,1452.76L921.26,1452.76ZM921.26,1452.76L927.165,1446.85L923.622,1452.76L921.26,1452.76ZM921.26,1452.76L915.354,1446.85L921.26,1450.39L921.26,1452.76Z" style="fill:rgb(17,17,17);"/>
                </g>
                <g transform="matrix(1,0,0,1,0,94.0551)">
                    <path d="M921.26,1452.76L921.26,1455.12L915.354,1458.66L921.26,1452.76ZM921.26,1452.76L921.26,1450.39L927.165,1446.85L921.26,1452.76ZM921.26,1452.76L923.622,1452.76L927.165,1458.66L921.26,1452.76ZM921.26,1452.76L918.898,1452.76L915.354,1446.85L921.26,1452.76Z" style="fill:rgb(68,68,68);"/>
                </g>
                <g transform="matrix(1,0,0,1,0,94.0551)">
                    <path d="M921.26,1452.76L933.071,1452.76L923.622,1455.12L921.26,1452.76ZM921.26,1452.76L921.26,1440.94L923.622,1450.39L921.26,1452.76ZM921.26,1452.76L921.26,1464.57L918.898,1455.12L921.26,1452.76ZM921.26,1452.76L909.449,1452.76L918.898,1450.39L921.26,1452.76Z" style="fill:rgb(17,17,17);"/>
                </g>
                <g transform="matrix(1,0,0,1,0,94.0551)">
                    <path d="M921.26,1452.76L918.898,1455.12L909.449,1452.76L921.26,1452.76ZM921.26,1452.76L923.622,1455.12L921.26,1464.57L921.26,1452.76ZM921.26,1452.76L923.622,1450.39L933.071,1452.76L921.26,1452.76ZM921.26,1452.76L918.898,1450.39L921.26,1440.94L921.26,1452.76Z" style="fill:rgb(68,68,68);"/>
                </g>
            </g>
            <g transform="matrix(1.02498,0,0,1.02498,-26.3868,49.4949)">
                <g transform="matrix(17.7191,0,0,17.7191,940.508,1461.99)">
                    <path d="M0.424,-0.088L0.175,-0.088L0.175,-0.317L0.424,-0.317C0.483,-0.317 0.53,-0.265 0.53,-0.202C0.53,-0.139 0.483,-0.088 0.424,-0.088ZM0.075,-0L0.428,-0C0.539,-0 0.63,-0.09 0.63,-0.197C0.63,-0.274 0.581,-0.338 0.511,-0.366C0.563,-0.397 0.598,-0.45 0.598,-0.513C0.598,-0.614 0.512,-0.7 0.406,-0.7L0.075,-0.7L0.075,-0ZM0.175,-0.404L0.175,-0.612L0.402,-0.612C0.455,-0.612 0.498,-0.565 0.498,-0.508C0.498,-0.451 0.455,-0.404 0.402,-0.404L0.175,-0.404Z" style="fill:rgb(17,17,17);fill-rule:nonzero;"/>
                </g>
                <g transform="matrix(17.7191,0,0,17.7191,952.326,1461.99)">
                    <path d="M0.075,-0L0.54,-0L0.54,-0.09L0.175,-0.09L0.175,-0.7L0.075,-0.7L0.075,-0Z" style="fill:rgb(17,17,17);fill-rule:nonzero;"/>
                </g>
                <g transform="matrix(17.7191,0,0,17.7191,962.532,1461.99)">
                    <path d="M0.022,-0L0.119,-0L0.184,-0.163L0.511,-0.163L0.576,-0L0.684,-0L0.398,-0.7L0.308,-0.7L0.022,-0ZM0.219,-0.251L0.348,-0.575L0.476,-0.251L0.219,-0.251Z" style="fill:rgb(17,17,17);fill-rule:nonzero;"/>
                </g>
                <g transform="matrix(17.7191,0,0,17.7191,974.262,1461.99)">
                    <path d="M0.409,0.016C0.569,0.016 0.705,-0.089 0.754,-0.234L0.652,-0.234C0.61,-0.14 0.517,-0.074 0.41,-0.074C0.26,-0.074 0.139,-0.198 0.139,-0.35C0.139,-0.502 0.26,-0.626 0.41,-0.626C0.517,-0.626 0.61,-0.561 0.652,-0.466L0.753,-0.466C0.705,-0.611 0.57,-0.716 0.409,-0.716C0.205,-0.716 0.039,-0.552 0.039,-0.35C0.039,-0.148 0.205,0.016 0.409,0.016Z" style="fill:rgb(17,17,17);fill-rule:nonzero;"/>
                </g>
                <g transform="matrix(17.7191,0,0,17.7191,988.172,1461.99)">
                    <path d="M0.525,-0L0.663,-0L0.263,-0.35L0.648,-0.7L0.522,-0.7L0.175,-0.385L0.175,-0.7L0.075,-0.7L0.075,-0L0.175,-0L0.175,-0.306L0.525,-0Z" style="fill:rgb(17,17,17);fill-rule:nonzero;"/>
                </g>
                <g transform="matrix(17.7191,0,0,17.7191,999.477,1461.99)">
                    <path d="M0.319,0.016C0.438,0.016 0.599,-0.04 0.599,-0.193C0.599,-0.322 0.461,-0.37 0.34,-0.401C0.241,-0.426 0.152,-0.45 0.152,-0.525C0.152,-0.605 0.253,-0.627 0.314,-0.627C0.413,-0.627 0.483,-0.57 0.483,-0.504L0.583,-0.504C0.583,-0.621 0.465,-0.716 0.315,-0.716C0.21,-0.716 0.052,-0.668 0.052,-0.519C0.052,-0.391 0.188,-0.343 0.309,-0.312C0.408,-0.287 0.499,-0.263 0.499,-0.186C0.499,-0.104 0.397,-0.073 0.321,-0.073C0.214,-0.073 0.136,-0.135 0.136,-0.209L0.036,-0.209C0.036,-0.085 0.161,0.016 0.319,0.016Z" style="fill:rgb(17,17,17);fill-rule:nonzero;"/>
                </g>
                <g transform="matrix(17.7191,0,0,17.7191,1010.39,1461.99)">
                    <path d="M0.261,-0L0.361,-0L0.361,-0.61L0.596,-0.61L0.596,-0.7L0.026,-0.7L0.026,-0.61L0.261,-0.61L0.261,-0Z" style="fill:rgb(17,17,17);fill-rule:nonzero;"/>
                </g>
                <g transform="matrix(17.7191,0,0,17.7191,1019.52,1461.99)">
                    <path d="M0.022,-0L0.119,-0L0.184,-0.163L0.511,-0.163L0.576,-0L0.684,-0L0.398,-0.7L0.308,-0.7L0.022,-0ZM0.219,-0.251L0.348,-0.575L0.476,-0.251L0.219,-0.251Z" style="fill:rgb(17,17,17);fill-rule:nonzero;"/>
                </g>
                <g transform="matrix(17.7191,0,0,17.7191,1031.8,1461.99)">
                    <path d="M0.075,-0L0.175,-0L0.175,-0.253L0.368,-0.253L0.533,-0L0.646,-0L0.474,-0.264C0.564,-0.293 0.63,-0.378 0.63,-0.477C0.63,-0.6 0.529,-0.7 0.406,-0.7L0.075,-0.7L0.075,-0ZM0.175,-0.343L0.175,-0.61L0.406,-0.61C0.474,-0.61 0.53,-0.55 0.53,-0.477C0.53,-0.403 0.474,-0.343 0.406,-0.343L0.175,-0.343Z" style="fill:rgb(17,17,17);fill-rule:nonzero;"/>
                </g>
            </g>
            <g transform="matrix(0.755723,0,0,0.755723,227.142,453.039)">
                <g transform="matrix(17.7191,0,0,17.7191,940.508,1461.99)">
                    <rect x="0.08" y="-0.7" width="0.08" height="0.7" style="fill:rgb(17,17,17);fill-rule:nonzero;"/>
                </g>
                <g transform="matrix(17.7191,0,0,17.7191,944.76,1461.99)">
                    <path d="M0.6,-0L0.672,-0L0.672,-0.7L0.6,-0.7L0.6,-0.123L0.152,-0.7L0.08,-0.7L0.08,-0L0.152,-0L0.152,-0.577L0.6,-0Z" style="fill:rgb(17,17,17);fill-rule:nonzero;"/>
                </g>
                <g transform="matrix(17.7191,0,0,17.7191,957.854,1461.99)">
                    <path d="M0.27,-0L0.35,-0L0.35,-0.628L0.591,-0.628L0.591,-0.7L0.029,-0.7L0.029,-0.628L0.27,-0.628L0.27,-0Z" style="fill:rgb(17,17,17);fill-rule:nonzero;"/>
                </g>
                <g transform="matrix(17.7191,0,0,17.7191,968.61,1461.99)">
                    <path d="M0.08,-0L0.554,-0L0.554,-0.072L0.16,-0.072L0.16,-0.314L0.522,-0.314L0.522,-0.386L0.16,-0.386L0.16,-0.628L0.55,-0.628L0.55,-0.7L0.08,-0.7L0.08,-0Z" style="fill:rgb(17,17,17);fill-rule:nonzero;"/>
                </g>
                <g transform="matrix(17.7191,0,0,17.7191,979.153,1461.99)">
                    <path d="M0.08,-0L0.16,-0L0.16,-0.264L0.374,-0.264L0.551,-0L0.642,-0L0.46,-0.27C0.555,-0.294 0.626,-0.38 0.626,-0.482C0.626,-0.602 0.528,-0.7 0.408,-0.7L0.08,-0.7L0.08,-0ZM0.16,-0.336L0.16,-0.628L0.408,-0.628C0.484,-0.628 0.546,-0.562 0.546,-0.482C0.546,-0.402 0.484,-0.336 0.408,-0.336L0.16,-0.336Z" style="fill:rgb(17,17,17);fill-rule:nonzero;"/>
                </g>
                <g transform="matrix(17.7191,0,0,17.7191,991.166,1461.99)">
                    <path d="M0.6,-0L0.672,-0L0.672,-0.7L0.6,-0.7L0.6,-0.123L0.152,-0.7L0.08,-0.7L0.08,-0L0.152,-0L0.152,-0.577L0.6,-0Z" style="fill:rgb(17,17,17);fill-rule:nonzero;"/>
                </g>
                <g transform="matrix(17.7191,0,0,17.7191,1004.28,1461.99)">
                    <path d="M0.027,-0L0.105,-0L0.176,-0.175L0.521,-0.175L0.592,-0L0.679,-0L0.389,-0.7L0.317,-0.7L0.027,-0ZM0.205,-0.247L0.348,-0.599L0.492,-0.247L0.205,-0.247Z" style="fill:rgb(17,17,17);fill-rule:nonzero;"/>
                </g>
                <g transform="matrix(17.7191,0,0,17.7191,1014.86,1461.99)">
                    <path d="M0.27,-0L0.35,-0L0.35,-0.628L0.591,-0.628L0.591,-0.7L0.029,-0.7L0.029,-0.628L0.27,-0.628L0.27,-0Z" style="fill:rgb(17,17,17);fill-rule:nonzero;"/>
                </g>
                <g transform="matrix(17.7191,0,0,17.7191,1025.59,1461.99)">
                    <rect x="0.08" y="-0.7" width="0.08" height="0.7" style="fill:rgb(17,17,17);fill-rule:nonzero;"/>
                </g>
                <g transform="matrix(17.7191,0,0,17.7191,1029.85,1461.99)">
                    <path d="M0.414,0.016C0.618,0.016 0.784,-0.148 0.784,-0.35C0.784,-0.552 0.618,-0.716 0.414,-0.716C0.21,-0.716 0.044,-0.552 0.044,-0.35C0.044,-0.148 0.21,0.016 0.414,0.016ZM0.124,-0.35C0.124,-0.512 0.254,-0.644 0.414,-0.644C0.574,-0.644 0.704,-0.512 0.704,-0.35C0.704,-0.188 0.574,-0.056 0.414,-0.056C0.254,-0.056 0.124,-0.188 0.124,-0.35Z" style="fill:rgb(17,17,17);fill-rule:nonzero;"/>
                </g>
                <g transform="matrix(17.7191,0,0,17.7191,1044.52,1461.99)">
                    <path d="M0.6,-0L0.672,-0L0.672,-0.7L0.6,-0.7L0.6,-0.123L0.152,-0.7L0.08,-0.7L0.08,-0L0.152,-0L0.152,-0.577L0.6,-0Z" style="fill:rgb(17,17,17);fill-rule:nonzero;"/>
                </g>
                <g transform="matrix(17.7191,0,0,17.7191,1057.63,1461.99)">
                    <path d="M0.027,-0L0.105,-0L0.176,-0.175L0.521,-0.175L0.592,-0L0.679,-0L0.389,-0.7L0.317,-0.7L0.027,-0ZM0.205,-0.247L0.348,-0.599L0.492,-0.247L0.205,-0.247Z" style="fill:rgb(17,17,17);fill-rule:nonzero;"/>
                </g>
                <g transform="matrix(17.7191,0,0,17.7191,1069.93,1461.99)">
                    <path d="M0.08,-0L0.538,-0L0.538,-0.072L0.16,-0.072L0.16,-0.7L0.08,-0.7L0.08,-0Z" style="fill:rgb(17,17,17);fill-rule:nonzero;"/>
                </g>
            </g>
        </g>
    </g>
</svg>
